<svg xmlns="http://www.w3.org/2000/svg" xmlns:xlink="http://www.w3.org/1999/xlink" viewBox="0 0 890.43 521.41">
  <defs>
    <clipPath id="clip-path">
      <ellipse cx="451.2" cy="313.08" rx="165.24" ry="398.3" transform="translate(129.63 758.27) rotate(-88.92)"
               style="fill:none"/>
    </clipPath>
    <clipPath id="clip-path-2">
      <ellipse cx="452.72" cy="213.04" rx="165.24" ry="398.3" transform="matrix(0.02, -1, 1, 0.02, 231.15, 661.65)"
               style="fill:none"/>
    </clipPath>
  </defs>
  <title>film3</title>
  <g id="レイヤー_3" data-name="レイヤー 3">
    <g style="isolation:isolate">
      <ellipse cx="451.11" cy="317.52" rx="165.24" ry="398.3" transform="matrix(0.02, -1, 1, 0.02, 125.11, 762.54)"
               style="fill:#c4c4c4"/>
      <path
        d="M52.89,305.36c1.47-77.38,134.46-144,324.67-155.85,216.15-13.49,424.35,48.81,465,139.15l-.08,4.43c-40.67-90.33-248.86-152.63-465-139.14C187.26,165.82,54.27,232.42,52.81,309.8,52.83,308.47,52.87,306.69,52.89,305.36Z"
        style="fill:#c4c4c4"/>
      <path
        d="M52.81,309.8l.08-4.44a74.32,74.32,0,0,0,6.93,32.14c40.66,90.34,248.86,152.63,465,139.15C715,464.78,848,398.17,849.5,320.8l-.08,4.44C848,402.61,715,469.21,524.75,481.08c-216.16,13.49-424.35-48.8-465-139.14A74.3,74.3,0,0,1,52.81,309.8Z"
        style="fill:#c4c4c4"/>
      <ellipse cx="451.2" cy="313.08" rx="165.24" ry="398.3" transform="translate(129.63 758.27) rotate(-88.92)"
               style="fill:#c4c4c4"/>
      <g style="isolation:isolate">
        <g style="clip-path:url(#clip-path)">
          <path
            d="M59.82,337.5c40.66,90.34,248.86,152.63,465,139.15s358.41-97.66,317.75-188S593.71,136,377.56,149.51,19.15,247.17,59.82,337.5"
            style="fill:#d0d1d4"/>
        </g>
      </g>
    </g>
  </g>
  <g id="レイヤー_2" data-name="レイヤー 2">
    <g style="isolation:isolate">
      <path
        d="M94.79,255.11c.45-62.48,121.26-117.33,294.42-128.28C585.34,114.42,774.35,163,811.37,235.37L811,290.1c-37-72.35-226-121-422.16-108.54-173.16,10.95-294,65.79-294.42,128.28C94.52,293.42,94.67,271.53,94.79,255.11Z"
        style="fill:#95919a"/>
      <path
        d="M817.32,315.29A54,54,0,0,0,811,290.1l.39-54.73a54,54,0,0,1,6.34,25.19C817.59,277,817.44,298.87,817.32,315.29Z"
        style="fill:#95919a"/>
      <path
        d="M94.4,309.84l.39-54.73a54,54,0,0,0,6.34,25.19c37,72.35,226,121,422.16,108.54,173.16-10.95,294-65.79,294.42-128.28l-.39,54.73c-.44,62.48-121.26,117.33-294.42,128.28C326.77,456,137.76,407.38,100.74,335A54,54,0,0,1,94.4,309.84Z"
        style="fill:#95919a"/>
      <ellipse cx="455.86" cy="312.56" rx="132.9" ry="361.4" transform="translate(140.06 766.18) rotate(-89.59)"
               style="fill:#95919a"/>
      <ellipse cx="456.25" cy="257.84" rx="132.9" ry="361.4" transform="matrix(0.01, -1, 1, 0.01, 195.17, 712.24)"
               style="fill:#95919a"/>
    </g>
  </g>
  <g id="レイヤー_1" data-name="レイヤー 1">
    <g style="isolation:isolate">
      <ellipse cx="452.64" cy="217.36" rx="165.24" ry="398.3" transform="translate(226.76 665.8) rotate(-88.92)"
               style="fill:#c9c9c9"/>
      <path
        d="M54.42,205.32C55.88,128,188.88,61.34,379.09,49.47,595.24,36,803.44,98.28,844.1,188.62l-.08,4.31C803.35,102.6,595.16,40.3,379,53.79,188.79,65.66,55.8,132.26,54.34,209.64,54.36,208.34,54.4,206.62,54.42,205.32Z"
        style="fill:#c9c9c9"/>
      <path
        d="M54.34,209.64l.08-4.32a74.32,74.32,0,0,0,6.93,32.14C102,327.8,310.21,390.1,526.36,376.61,716.57,364.74,849.56,298.13,851,220.76l-.08,4.31c-1.47,77.38-134.46,144-324.67,155.85-216.15,13.49-424.35-48.81-465-139.14A74.3,74.3,0,0,1,54.34,209.64Z"
        style="fill:#c9c9c9"/>
      <ellipse cx="452.72" cy="213.04" rx="165.24" ry="398.3" transform="matrix(0.02, -1, 1, 0.02, 231.15, 661.65)"
               style="fill:#c9c9c9"/>
      <g style="isolation:isolate">
        <g style="clip-path:url(#clip-path-2)">
          <path
            d="M785.69,192.26c10.08,22.39-25.17,43.24-78.73,46.58s-105.14-12.09-115.22-34.48,25.17-43.23,78.73-46.57,105.14,12.09,115.22,34.47m-146.45-91c.38.85,0,1.75-1.16,2.51L532.34,171.72c-2.51,1.61-7.76,2-11.74.92-2.09-.58-3.41-1.46-3.83-2.4s0-1.75,1.16-2.51L623.67,99.8c2.51-1.61,7.77-2,11.74-.92,2.09.58,3.41,1.46,3.83,2.4m94.4,188.31c.38.85,0,1.75-1.17,2.52-2.5,1.61-7.76,2-11.74.92L553.05,246.52c-2.08-.58-3.4-1.45-3.83-2.39s0-1.75,1.17-2.52c2.51-1.61,7.77-2,11.74-.92l167.69,46.5c2.08.58,3.39,1.46,3.82,2.4m-230.9-79.28c5.27,11.71-13.16,22.62-41.18,24.36s-55-6.32-60.26-18,13.16-22.61,41.17-24.36,55,6.33,60.27,18m-4.49-106.74c9.58,21.29-23.94,41.12-74.86,44.3s-100-11.5-109.57-32.79S337.76,74,388.69,70.79s100,11.5,109.56,32.78M600.53,306.81c10.67,23.71-26.66,45.8-83.38,49.34s-111.36-12.81-122-36.52,26.66-45.79,83.38-49.33,111.36,12.81,122,36.51m-206-48.34c.39.85,0,1.75-1.16,2.52L287.64,328.92c-2.5,1.61-7.76,2-11.74.92-2.08-.58-3.4-1.46-3.82-2.4s0-1.75,1.16-2.52L379,257c2.51-1.62,7.77-2,11.74-.92,2.08.58,3.4,1.46,3.82,2.39m-28.6-80.59c.38.85,0,1.75-1.17,2.52-2.51,1.61-7.77,2-11.73.92l-167.7-46.51c-2.07-.57-3.39-1.45-3.81-2.39s0-1.75,1.16-2.52c2.5-1.61,7.76-2,11.74-.92l167.68,46.51c2.09.58,3.41,1.46,3.83,2.39m-27.31,42.28C349.3,243.87,312,266,255.25,269.49S143.9,256.68,133.22,233s26.66-45.79,83.38-49.33,111.36,12.8,122,36.51M61.34,237.46C102,327.8,310.21,390.1,526.36,376.61S884.77,279,844.1,188.62,595.24,36,379.09,49.47s-358.41,97.66-317.75,188"
            style="fill:#D0D1D4"/>
          <path
            d="M401.3,216.64c5.27,11.71,32.25,19.78,60.26,18S508,222,502.74,210.31s-32.25-19.78-60.27-18S396,204.94,401.3,216.64"
            style="fill:#D0D1D4"/>
          <path
            d="M133.22,233c10.68,23.7,65.31,40,122,36.51s94.05-25.62,83.38-49.33-65.3-40-122-36.51-94,25.62-83.38,49.33"
            style="fill:#D0D1D4"/>
          <path
            d="M313.82,115.08c9.58,21.29,58.64,36,109.57,32.79s84.44-23,74.86-44.3-58.64-36-109.56-32.78-84.45,23-74.87,44.29"
            style="fill:#D0D1D4"/>
          <path
            d="M395.12,319.63c10.67,23.71,65.3,40.06,122,36.52s94.05-25.63,83.38-49.34-65.3-40.05-122-36.51-94.05,25.63-83.38,49.33"
            style="fill:#D0D1D4"/>
          <path
            d="M591.74,204.36c10.08,22.39,61.66,37.83,115.22,34.48s88.81-24.19,78.73-46.58S724,154.44,670.47,157.79,581.66,182,591.74,204.36"
            style="fill:#D0D1D4"/>
          <path
            d="M272.08,327.44c.42.94,1.74,1.82,3.82,2.4,4,1.1,9.24.69,11.74-.92L393.38,261c1.19-.77,1.55-1.67,1.16-2.52s-1.74-1.81-3.82-2.39c-4-1.11-9.23-.7-11.74.92L273.24,324.92c-1.19.77-1.55,1.67-1.16,2.52"
            style="fill:#95919a"/>
          <path
            d="M516.77,170.24c.42.94,1.74,1.82,3.83,2.4,4,1.1,9.23.69,11.74-.92l105.74-67.93c1.19-.76,1.54-1.66,1.16-2.51s-1.74-1.82-3.83-2.4c-4-1.1-9.23-.69-11.74.92L517.93,167.73c-1.19.76-1.54,1.66-1.16,2.51"
            style="fill:#95919a"/>
          <path
            d="M549.22,244.13c.43.94,1.75,1.81,3.83,2.39L720.73,293c4,1.1,9.24.69,11.74-.92,1.19-.77,1.55-1.67,1.17-2.52s-1.74-1.82-3.82-2.4l-167.69-46.5c-4-1.1-9.23-.69-11.74.92-1.19.77-1.55,1.67-1.17,2.52"
            style="fill:#95919a"/>
          <path
            d="M181.53,132.42c.42.94,1.74,1.82,3.81,2.39L353,181.32c4,1.1,9.22.69,11.73-.92,1.2-.77,1.55-1.67,1.17-2.52s-1.74-1.81-3.83-2.39L194.43,129c-4-1.1-9.24-.69-11.74.92-1.19.77-1.55,1.67-1.16,2.52"
            style="fill:#95919a"/>
        </g>
      </g>
    </g>
  </g>
</svg>
