<svg xmlns="http://www.w3.org/2000/svg" xmlns:xlink="http://www.w3.org/1999/xlink" viewBox="0 0 810.96 435.62">
  <defs>
    <clipPath id="clip-path">
      <ellipse cx="407.34" cy="172.42" rx="165.24" ry="398.3" transform="matrix(0.02, -1, 1, 0.02, 227.24, 576.43)"
               style="fill:none"/>
    </clipPath>
  </defs>
  <title>film_simple</title>
  <g id="レイヤー_1" data-name="レイヤー 1">
    <g style="isolation:isolate">
      <path
        d="M9,164.7C10.5,87.33,143.5,20.73,333.71,8.86,549.86-4.63,758.05,57.66,798.72,148L797,238.29C756.35,148,548.15,85.66,332,99.15,141.79,111,8.79,177.62,7.33,255,7.84,227.91,8.53,191.79,9,164.7Z"
        style="fill:#fdb87d"/>
      <path
        d="M803.94,270.43A74.32,74.32,0,0,0,797,238.29L798.72,148a74.32,74.32,0,0,1,6.93,32.14C805.14,207.23,804.45,243.35,803.94,270.43Z"
        style="fill:#fdb87d"/>
      <path
        d="M7.33,255,9,164.7A74.36,74.36,0,0,0,16,196.85C56.63,287.18,264.83,349.48,481,336c190.21-11.87,323.2-78.47,324.67-155.85l-1.71,90.29c-1.47,77.38-134.46,144-324.67,155.85-216.15,13.49-424.35-48.81-465-139.14A74.32,74.32,0,0,1,7.33,255Z"
        style="fill:#fdb87d"/>
      <ellipse cx="405.63" cy="262.72" rx="165.24" ry="398.3" transform="translate(135.29 663.3) rotate(-88.92)"
               style="fill:#fdb87d"/>
      <ellipse cx="407.34" cy="172.42" rx="165.24" ry="398.3" transform="matrix(0.02, -1, 1, 0.02, 227.24, 576.43)"
               style="fill:#fdb87d"/>
    </g>
  </g>
</svg>
