<svg xmlns="http://www.w3.org/2000/svg" xmlns:xlink="http://www.w3.org/1999/xlink" viewBox="0 0 810.96 435.62">
  <defs>
    <clipPath id="clip-path">
      <ellipse cx="407.34" cy="172.42" rx="165.24" ry="398.3" transform="matrix(0.02, -1, 1, 0.02, 227.24, 576.43)"
               style="fill:none"/>
    </clipPath>
  </defs>
  <title>film_simple</title>
  <g id="レイヤー_1" data-name="レイヤー 1">
    <g style="isolation:isolate">
      <path
        d="M9,164.7C10.5,87.33,143.5,20.73,333.71,8.86,549.86-4.63,758.05,57.66,798.72,148L797,238.29C756.35,148,548.15,85.66,332,99.15,141.79,111,8.79,177.62,7.33,255,7.84,227.91,8.53,191.79,9,164.7Z"
        style="fill:#FFC776"/>
      <path
        d="M803.94,270.43A74.32,74.32,0,0,0,797,238.29L798.72,148a74.32,74.32,0,0,1,6.93,32.14C805.14,207.23,804.45,243.35,803.94,270.43Z"
        style="fill:#FFC776"/>
      <path
        d="M7.33,255,9,164.7A74.36,74.36,0,0,0,16,196.85C56.63,287.18,264.83,349.48,481,336c190.21-11.87,323.2-78.47,324.67-155.85l-1.71,90.29c-1.47,77.38-134.46,144-324.67,155.85-216.15,13.49-424.35-48.81-465-139.14A74.32,74.32,0,0,1,7.33,255Z"
        style="fill:#FFC776"/>
      <ellipse cx="405.63" cy="262.72" rx="165.24" ry="398.3" transform="translate(135.29 663.3) rotate(-88.92)"
               style="fill:#FFC776"/>
      <ellipse cx="407.34" cy="172.42" rx="165.24" ry="398.3" transform="matrix(0.02, -1, 1, 0.02, 227.24, 576.43)"
               style="fill:#FFC776"/>
      <g style="isolation:isolate">
        <g style="clip-path:url(#clip-path)">
          <path
            d="M740.31,151.64c10.08,22.39-25.17,43.25-78.73,46.59s-105.14-12.1-115.22-34.48,25.17-43.24,78.72-46.58,105.15,12.09,115.23,34.47m-146.45-91c.38.85,0,1.75-1.17,2.52L487,131.1c-2.51,1.62-7.76,2-11.74.92-2.09-.58-3.41-1.46-3.83-2.39s0-1.75,1.16-2.52L578.29,59.18c2.51-1.61,7.77-2,11.74-.92,2.09.58,3.41,1.46,3.83,2.4M688.25,249c.39.85,0,1.75-1.16,2.52-2.5,1.61-7.76,2-11.74.92L507.67,205.9c-2.09-.57-3.4-1.45-3.83-2.39s0-1.75,1.17-2.52c2.51-1.61,7.77-2,11.74-.92l167.69,46.51c2.08.58,3.39,1.46,3.81,2.39M457.36,169.69c5.27,11.71-13.17,22.62-41.18,24.37s-55-6.33-60.26-18,13.16-22.61,41.17-24.36,55,6.33,60.27,18M452.87,63c9.58,21.28-23.94,41.11-74.87,44.29S278,95.75,268.44,74.46s23.94-41.11,74.86-44.29,100,11.5,109.57,32.79M555.15,266.2c10.67,23.7-26.66,45.79-83.38,49.33s-111.36-12.81-122-36.51,26.66-45.8,83.38-49.34,111.36,12.81,122,36.52m-206-48.34c.39.85,0,1.75-1.16,2.51L242.26,288.3c-2.5,1.61-7.76,2-11.74.92-2.08-.58-3.4-1.46-3.83-2.4s0-1.75,1.17-2.51L333.6,216.38c2.51-1.61,7.77-2,11.74-.92,2.08.58,3.4,1.46,3.82,2.4m-28.6-80.59c.38.85,0,1.75-1.17,2.51-2.51,1.61-7.77,2-11.73.92L140,94.2c-2.08-.58-3.39-1.46-3.81-2.4s0-1.75,1.16-2.52c2.5-1.61,7.76-2,11.74-.92l167.68,46.51c2.09.58,3.4,1.46,3.83,2.4m-27.31,42.27c10.67,23.71-26.66,45.79-83.38,49.33s-111.35-12.8-122-36.51S114.5,146.57,171.22,143s111.36,12.81,122,36.51M16,196.85C56.63,287.18,264.83,349.48,481,336s358.41-97.65,317.74-188S549.86-4.63,333.71,8.86-24.7,106.51,16,196.85"
            style="fill:#FFC776"/>
          <path
            d="M355.92,176c5.27,11.71,32.25,19.79,60.26,18s46.45-12.66,41.18-24.37-32.25-19.78-60.27-18S350.65,164.32,355.92,176"
            style="fill:#FFC776"/>
          <path
            d="M87.84,192.36c10.68,23.71,65.31,40,122,36.51s94.05-25.62,83.38-49.33-65.3-40-122-36.51-94,25.62-83.38,49.33"
            style="fill:#FFC776"/>
          <path
            d="M268.44,74.46c9.58,21.29,58.64,36,109.56,32.79s84.45-23,74.87-44.29S394.23,27,343.3,30.17s-84.44,23-74.86,44.29"
            style="fill:#FFC776"/>
          <path
            d="M349.74,279c10.67,23.7,65.3,40.05,122,36.51s94.05-25.63,83.38-49.33-65.3-40.06-122-36.52S339.07,255.31,349.74,279"
            style="fill:#FFC776"/>
          <path
            d="M546.36,163.75c10.08,22.38,61.66,37.82,115.22,34.48s88.81-24.2,78.73-46.59-61.66-37.81-115.23-34.47-88.8,24.19-78.72,46.58"
            style="fill:#FFC776"/>
          <path
            d="M226.69,286.82c.43.94,1.75,1.82,3.83,2.4,4,1.1,9.24.69,11.74-.92L348,220.37c1.19-.76,1.55-1.66,1.16-2.51s-1.74-1.82-3.82-2.4c-4-1.1-9.23-.69-11.74.92L227.86,284.31c-1.19.76-1.55,1.66-1.17,2.51"
            style="fill:#FFC776"/>
          <path
            d="M471.39,129.63c.42.93,1.74,1.81,3.83,2.39,4,1.11,9.23.7,11.74-.92L592.69,63.18c1.2-.77,1.55-1.67,1.17-2.52s-1.74-1.82-3.83-2.4c-4-1.1-9.23-.69-11.74.92L472.55,127.11c-1.19.77-1.54,1.67-1.16,2.52"
            style="fill:#FFC776"/>
          <path
            d="M503.84,203.51c.43.94,1.74,1.82,3.83,2.39l167.68,46.51c4,1.1,9.24.69,11.74-.92,1.19-.77,1.55-1.67,1.16-2.52s-1.73-1.81-3.81-2.39L516.75,200.07c-4-1.1-9.23-.69-11.74.92-1.2.77-1.55,1.67-1.17,2.52"
            style="fill:#FFC776"/>
          <path
            d="M136.15,91.8c.42.94,1.73,1.82,3.81,2.4l167.7,46.5c4,1.1,9.22.69,11.73-.92,1.19-.76,1.55-1.66,1.17-2.51s-1.74-1.82-3.83-2.4L149.05,88.36c-4-1.1-9.24-.69-11.74.92-1.19.77-1.55,1.67-1.16,2.52"
            style="fill:#FFC776"/>
        </g>
      </g>
    </g>
  </g>
</svg>
